<svg width="14" height="14" viewBox="0 0 14 14" fill="none" xmlns="http://www.w3.org/2000/svg">
<path d="M13.1989 12.5928L9.69891 9.09284C10.5806 8.01301 11.0138 6.63571 10.9088 5.2456C10.8039 3.85549 10.1689 2.55882 9.13512 1.62357C8.10132 0.688328 6.74772 0.186 5.35408 0.220408C3.96044 0.254816 2.63328 0.823327 1.64689 1.80845C0.6605 2.79357 0.0902815 4.11999 0.0540811 5.51359C0.0178807 6.90719 0.518465 8.26143 1.45238 9.29643C2.38629 10.3314 3.68214 10.9681 5.07212 11.0748C6.4621 11.1815 7.83995 10.7501 8.92091 9.86984L12.4209 13.3698C12.5241 13.473 12.664 13.531 12.8099 13.531C12.9558 13.531 13.0957 13.473 13.1989 13.3698C13.3021 13.2667 13.36 13.1267 13.36 12.9808C13.36 12.8349 13.3021 12.695 13.1989 12.5918V12.5928ZM1.17791 5.66783C1.17811 4.81366 1.43158 3.97872 1.90628 3.2686C2.38098 2.55847 3.05558 2.00505 3.84479 1.67831C4.63401 1.35157 5.50238 1.26618 6.34012 1.43294C7.17786 1.59971 7.94734 2.01113 8.55126 2.61519C9.15518 3.21926 9.56643 3.98883 9.733 4.82661C9.89956 5.66438 9.81398 6.53274 9.48705 7.32188C9.16013 8.11101 8.60655 8.78549 7.89632 9.26002C7.18608 9.73455 6.35109 9.98783 5.49691 9.98783C4.35159 9.98677 3.2535 9.53126 2.44373 8.72131C1.63397 7.91135 1.17871 6.81315 1.17791 5.66783Z" fill="#86868B"/>
</svg>
